<svg xmlns="http://www.w3.org/2000/svg" viewBox="0 0 120 180" fill="none">
  <rect width="120" height="180" fill="#f5f5f4"/>
  <g transform="translate(35, 20)">
    <!-- Bottle neck -->
    <rect x="18" y="0" width="14" height="25" fill="#78716c"/>
    <!-- Bottle cork -->
    <rect x="19" y="0" width="12" height="8" fill="#a8a29e"/>
    <!-- Bottle body -->
    <path d="M18 25 L18 35 Q10 45 10 60 L10 130 Q10 140 20 140 L30 140 Q40 140 40 130 L40 60 Q40 45 32 35 L32 25 Z" fill="#78716c"/>
    <!-- Wine level -->
    <path d="M12 70 L12 130 Q12 138 20 138 L30 138 Q38 138 38 130 L38 70 Q25 65 12 70 Z" fill="#7f1d1d" opacity="0.8"/>
    <!-- Bottle highlight -->
    <rect x="14" y="70" width="3" height="60" fill="white" opacity="0.2"/>
    <!-- Label -->
    <rect x="14" y="85" width="22" height="30" fill="white" opacity="0.9"/>
    <rect x="16" y="90" width="18" height="2" fill="#d6d3d1"/>
    <rect x="16" y="95" width="14" height="1" fill="#e7e5e4"/>
    <rect x="16" y="98" width="16" height="1" fill="#e7e5e4"/>
    <rect x="16" y="101" width="12" height="1" fill="#e7e5e4"/>
  </g>
  <text x="60" y="165" text-anchor="middle" fill="#a8a29e" font-family="system-ui" font-size="10">Wine</text>
</svg>
